<svg xmlns="http://www.w3.org/2000/svg" version="1.1" xmlns:xlink="http://www.w3.org/1999/xlink" xmlns:svgjs="http://svgjs.com/svgjs" width="1000" height="1000"><rect width="1000" height="1000" rx="500" ry="500" fill="#ffffff"></rect><g transform="matrix(1.4315513926949976,0,0,1.4315513926949976,195.647856129366,149.99786389929636)"><svg xmlns="http://www.w3.org/2000/svg" version="1.1" xmlns:xlink="http://www.w3.org/1999/xlink" xmlns:svgjs="http://svgjs.com/svgjs" width="425.2" height="488.98"><svg id="Layer_2" xmlns="http://www.w3.org/2000/svg" viewBox="0 0 425.2 488.98">
  <defs>
    <style>
      .cls-1 {
        fill: #3d4543;
      }

      .cls-2 {
        fill: #ffb600;
      }
    </style>
  </defs>
  <g id="ah_x5F_favicono">
    <path class="cls-2" d="M212.6,353.19c-8.56,0-17.03,1.62-24.99,4.77-8.63,3.41-16.46,8.56-23.02,15.12-6.56,6.56-11.7,14.39-15.12,23.02-3.15,7.96-4.77,16.43-4.77,24.99s1.62,17.03,4.77,24.99c3.41,8.63,8.56,16.46,15.12,23.02,6.56,6.56,14.39,11.7,23.02,15.12,7.96,3.15,16.43,4.77,24.99,4.77s17.03-1.62,24.99-4.77c8.63-3.41,16.46-8.56,23.02-15.12,6.56-6.56,11.7-14.39,15.12-23.02,3.15-7.96,4.77-16.43,4.77-24.99s-1.62-17.03-4.77-24.99c-3.41-8.63-8.56-16.46-15.12-23.02-6.56-6.56-14.39-11.7-23.02-15.12-7.96-3.15-16.43-4.77-24.99-4.77Z"></path>
    <path class="cls-1" d="M424.51,310.68c-53.35-101.94-106.69-203.88-160.04-305.82-1.56-2.98-4.65-4.86-8.02-4.86h-87.71c-3.37,0-6.46,1.87-8.02,4.86C107.38,106.8,54.03,208.74.69,310.68c-.98,1.87-.91,4.12.18,5.92s3.05,2.91,5.16,2.91h84.39c2.99,0,5.78-1.47,7.47-3.94.51-.74,1.03-1.48,1.55-2.21,2.55-3.56,5.3-6.98,8.22-10.25,2.96-3.32,6.09-6.48,9.38-9.47,3.32-3.02,6.79-5.87,10.39-8.53,3.62-2.67,7.37-5.17,11.24-7.47,3.86-2.3,7.83-4.4,11.89-6.31,4.03-1.89,8.14-3.6,12.33-5.11,4.12-1.49,8.32-2.78,12.56-3.89,4.15-1.08,8.36-1.98,12.59-2.69,4.12-.69,8.27-1.21,12.44-1.56,4.04-.33,8.09-.5,12.13-.5s8.1.17,12.13.5c4.17.34,8.32.86,12.44,1.56,4.23.71,8.43,1.61,12.59,2.69,4.24,1.11,8.43,2.4,12.56,3.89,4.19,1.51,8.3,3.21,12.33,5.11,4.06,1.91,8.03,4.02,11.89,6.31,3.87,2.3,7.62,4.79,11.24,7.47,3.61,2.67,7.08,5.51,10.39,8.53,3.29,2.99,6.42,6.15,9.38,9.47,2.92,3.27,5.66,6.69,8.22,10.25.53.73,1.04,1.47,1.55,2.21,1.69,2.46,4.48,3.94,7.47,3.94h84.39c2.11,0,4.07-1.1,5.16-2.91,1.09-1.81,1.16-4.05.18-5.92ZM260.01,191.87h-94.83c-1.35,0-2.22-1.41-1.62-2.62,15.81-31.74,31.61-63.47,47.42-95.21.67-1.34,2.57-1.34,3.24,0,15.81,31.74,31.61,63.47,47.42,95.21.6,1.2-.28,2.62-1.62,2.62Z"></path>
  </g>
</svg></svg></g></svg>