<svg version="1.1" xmlns="http://www.w3.org/2000/svg" xmlns:xlink="http://www.w3.org/1999/xlink" width="425.2px" height="488.98px" viewBox="0,0,222.60156,256"><g transform="translate(55.65039,64) scale(0.5,0.5)"><g fill="none" fill-rule="nonzero" stroke="none" stroke-width="1" stroke-linecap="butt" stroke-linejoin="miter" stroke-miterlimit="10" stroke-dasharray="" stroke-dashoffset="0" font-family="none" font-weight="none" font-size="none" text-anchor="none" style="mix-blend-mode: normal"><g transform="translate(-0.0088,-0.00262) scale(0.52354,0.52354)"><g id="ah_x5F_favicono"><path d="M212.6,353.19c-8.56,0 -17.03,1.62 -24.99,4.77c-8.63,3.41 -16.46,8.56 -23.02,15.12c-6.56,6.56 -11.7,14.39 -15.12,23.02c-3.15,7.96 -4.77,16.43 -4.77,24.99c0,8.56 1.62,17.03 4.77,24.99c3.41,8.63 8.56,16.46 15.12,23.02c6.56,6.56 14.39,11.7 23.02,15.12c7.96,3.15 16.43,4.77 24.99,4.77c8.56,0 17.03,-1.62 24.99,-4.77c8.63,-3.41 16.46,-8.56 23.02,-15.12c6.56,-6.56 11.7,-14.39 15.12,-23.02c3.15,-7.96 4.77,-16.43 4.77,-24.99c0,-8.56 -1.62,-17.03 -4.77,-24.99c-3.41,-8.63 -8.56,-16.46 -15.12,-23.02c-6.56,-6.56 -14.39,-11.7 -23.02,-15.12c-7.96,-3.15 -16.43,-4.77 -24.99,-4.77z" fill="#ffb600"></path><path d="M424.51,310.68c-53.35,-101.94 -106.69,-203.88 -160.04,-305.82c-1.56,-2.98 -4.65,-4.86 -8.02,-4.86h-87.71c-3.37,0 -6.46,1.87 -8.02,4.86c-53.34,101.94 -106.69,203.88 -160.03,305.82c-0.98,1.87 -0.91,4.12 0.18,5.92c1.09,1.8 3.05,2.91 5.16,2.91h84.39c2.99,0 5.78,-1.47 7.47,-3.94c0.51,-0.74 1.03,-1.48 1.55,-2.21c2.55,-3.56 5.3,-6.98 8.22,-10.25c2.96,-3.32 6.09,-6.48 9.38,-9.47c3.32,-3.02 6.79,-5.87 10.39,-8.53c3.62,-2.67 7.37,-5.17 11.24,-7.47c3.86,-2.3 7.83,-4.4 11.89,-6.31c4.03,-1.89 8.14,-3.6 12.33,-5.11c4.12,-1.49 8.32,-2.78 12.56,-3.89c4.15,-1.08 8.36,-1.98 12.59,-2.69c4.12,-0.69 8.27,-1.21 12.44,-1.56c4.04,-0.33 8.09,-0.5 12.13,-0.5c4.04,0 8.1,0.17 12.13,0.5c4.17,0.34 8.32,0.86 12.44,1.56c4.23,0.71 8.43,1.61 12.59,2.69c4.24,1.11 8.43,2.4 12.56,3.89c4.19,1.51 8.3,3.21 12.33,5.11c4.06,1.91 8.03,4.02 11.89,6.31c3.87,2.3 7.62,4.79 11.24,7.47c3.61,2.67 7.08,5.51 10.39,8.53c3.29,2.99 6.42,6.15 9.38,9.47c2.92,3.27 5.66,6.69 8.22,10.25c0.53,0.73 1.04,1.47 1.55,2.21c1.69,2.46 4.48,3.94 7.47,3.94h84.39c2.11,0 4.07,-1.1 5.16,-2.91c1.09,-1.81 1.16,-4.05 0.18,-5.92zM260.01,191.87h-94.83c-1.35,0 -2.22,-1.41 -1.62,-2.62c15.81,-31.74 31.61,-63.47 47.42,-95.21c0.67,-1.34 2.57,-1.34 3.24,0c15.81,31.74 31.61,63.47 47.42,95.21c0.6,1.2 -0.28,2.62 -1.62,2.62z" fill="#3d4543"></path></g></g></g></g></svg>