<svg version="1.1" xmlns="http://www.w3.org/2000/svg" xmlns:xlink="http://www.w3.org/1999/xlink" width="406.52px" height="477.69px" viewBox="0,0,217.85156,256"><g transform="translate(54.46289,64) scale(0.5,0.5)"><g fill="none" fill-rule="nonzero" stroke="none" stroke-width="1" stroke-linecap="butt" stroke-linejoin="miter" stroke-miterlimit="10" stroke-dasharray="" stroke-dashoffset="0" font-family="none" font-weight="none" font-size="none" text-anchor="none" style="mix-blend-mode: normal"><g transform="translate(-0.00946,0) scale(0.53591,0.53591)"><g id="ah_x5F_favicono_x5F_positivo_x5F_color"><path d="M247.28,459.47c6.05,-6.05 10.71,-13.15 13.86,-21.1c2.9,-7.33 4.37,-15.04 4.37,-22.92c0,-7.88 -1.47,-15.59 -4.37,-22.91c-3.15,-7.96 -7.81,-15.06 -13.86,-21.11c-6.05,-6.05 -13.15,-10.71 -21.11,-13.86c-7.33,-2.9 -15.04,-4.37 -22.92,-4.37c-7.88,0 -15.59,1.47 -22.92,4.37c-7.95,3.15 -15.05,7.81 -21.11,13.86c-6.05,6.05 -10.71,13.15 -13.86,21.11c-2.9,7.33 -4.37,15.04 -4.37,22.92c0,7.88 1.47,15.59 4.37,22.91c3.15,7.95 7.81,15.06 13.86,21.11c6.05,6.05 13.15,10.71 21.11,13.86c14.65,5.8 31.17,5.8 45.83,0c7.95,-3.15 15.05,-7.81 21.1,-13.86z" fill="#ffb600"></path><path d="M405.82,299.34c-51.36,-98.16 -102.73,-196.32 -154.09,-294.47c-1.57,-2.99 -4.66,-4.87 -8.04,-4.87h-80.86c-3.38,0 -6.47,1.87 -8.04,4.87c-51.36,98.15 -102.72,196.31 -154.09,294.47c-2.12,4.05 0.82,8.89 5.38,8.89c19.43,0 38.86,0 58.29,0c4.59,0 9.18,0 13.78,0c2.92,0 5.66,-1.41 7.37,-3.78c0.09,-0.12 0.18,-0.24 0.26,-0.36c0.92,-1.28 1.87,-2.53 2.84,-3.78c3.9,-5 8.17,-9.71 12.75,-14.1c4.64,-4.44 9.59,-8.55 14.8,-12.31c5.22,-3.76 10.71,-7.16 16.39,-10.18c5.64,-2.99 11.47,-5.61 17.45,-7.85c5.85,-2.19 11.84,-4 17.92,-5.44c11.57,-2.74 23.45,-4.12 35.34,-4.12c11.89,0 23.77,1.38 35.34,4.12c6.08,1.44 12.07,3.26 17.92,5.44c5.98,2.23 11.81,4.85 17.45,7.85c5.68,3.02 11.17,6.42 16.39,10.18c5.21,3.75 10.16,7.86 14.8,12.31c4.58,4.39 8.84,9.1 12.75,14.1c0.97,1.24 1.91,2.5 2.84,3.78c0.09,0.12 0.18,0.24 0.26,0.36c1.7,2.37 4.45,3.78 7.37,3.78c5.35,0 10.7,0 16.05,0c18.67,0 37.35,0 56.02,0c4.57,0 7.5,-4.85 5.38,-8.89zM259.71,191.86h-112.9c-1.37,0 -2.27,-1.44 -1.66,-2.67c1.34,-2.7 2.69,-5.39 4.03,-8.09c17.47,-35.09 34.95,-70.17 52.42,-105.26c0.68,-1.37 2.63,-1.37 3.31,0c18.82,37.78 37.63,75.56 56.45,113.35c0.61,1.23 -0.28,2.67 -1.66,2.67z" fill="#fafafa"></path></g></g></g></g></svg>